<svg viewBox="0 0 180 180" fill="none" xmlns="http://www.w3.org/2000/svg">
  <style>
    .background {
      fill: url(#paint0_linear_1917_25883)
    }

    @media (prefers-color-scheme: dark) {
      .background {
        fill: #F1EDFC
      }
    }
  </style>
  <path class="background" d="M0 46.0609C0 29.7682 0 21.6219 3.21392 15.4211C5.92227 10.1958 10.1734 5.93534 15.3872 3.22102C21.5742 0 29.7026 0 45.9595 0H134.041C150.297 0 158.426 0 164.613 3.22102C169.827 5.93534 174.078 10.1958 176.786 15.4211C180 21.6219 180 29.7682 180 46.0609V133.939C180 150.232 180 158.378 176.786 164.579C174.078 169.804 169.827 174.065 164.613 176.779C158.426 180 150.297 180 134.041 180H45.9595C29.7026 180 21.5742 180 15.3872 176.779C10.1734 174.065 5.92227 169.804 3.21392 164.579C0 158.378 0 150.232 0 133.939V46.0609Z"/>
  <path d="M114.599 55.2873C113.412 54.6672 112.728 53.3883 112.896 52.0706C113.063 50.7529 114.031 49.6678 115.335 49.3706C117 48.9831 118.703 48.6214 120.381 48.2597H120.394C124.821 47.3295 129.003 46.4382 132.655 45.0171C133.881 44.5392 134.514 44.0612 134.81 43.7253C135.069 43.4411 135.043 43.3119 135.043 43.3119C135.043 43.1827 134.823 42.1493 132.655 40.8703C128.577 38.4546 120.072 36.8786 109.037 40.2373C104.945 41.4775 102.054 43.0794 100.028 44.7588C98.8279 45.7535 97.0984 45.7535 95.8982 44.7588C94.7108 43.7641 94.401 42.0588 95.1883 40.7282C95.8207 39.6431 96.466 38.558 97.1113 37.4857V37.4728C99.4861 33.5069 101.732 29.7347 103.164 26.0271C103.642 24.787 103.694 23.9989 103.642 23.5985C103.603 23.2626 103.5 23.1851 103.461 23.1463C103.242 22.9655 102.067 22.4617 99.4345 23.2626C94.4656 24.7611 87.1219 30.1998 82.0497 40.7799C81.5206 41.8909 81.0818 42.9373 80.7204 43.932C80.2042 45.353 78.7587 46.2186 77.2615 46.0119C75.7515 45.8052 74.6028 44.5779 74.4996 43.0794C74.3318 40.767 74.2673 38.3771 74.2157 36.0389V36.0001C74.0995 31.4528 73.9704 27.1381 73.2348 23.2238C72.9896 21.9062 72.6153 21.144 72.3184 20.7564C72.0474 20.4076 71.8925 20.3818 71.8796 20.3818C71.8022 20.3689 70.7955 20.3301 69.1564 22.1516C66.0718 25.6137 62.9485 33.6361 64.2778 45.2497C64.4585 46.8774 64.7296 48.3372 65.0522 49.6678C65.4265 51.1792 64.6521 52.7294 63.2195 53.3495C47.5255 60.1833 38.375 73.9414 38.375 90.3865C38.375 105.178 46.8802 118.729 60.8577 126.7C62.1612 127.436 62.7678 128.974 62.329 130.395L55.579 152.227C55.166 153.544 56.1727 154.888 57.5666 154.888H82.9016L82.5789 152.95C82.295 151.297 81.0431 149.966 79.3911 149.591L75.0546 148.597C73.5962 148.261 72.5637 146.969 72.5637 145.496V135.73C72.5637 134.761 73.0025 133.857 73.7639 133.25C74.5254 132.643 75.5192 132.41 76.4613 132.617C80.6172 133.521 85.044 133.999 89.6644 133.999C93.1362 133.999 96.466 133.857 99.641 133.586C100.506 133.508 101.358 133.779 102.016 134.335C102.674 134.89 103.074 135.691 103.139 136.544L104.197 152.989C104.274 154.061 105.178 154.901 106.262 154.901H129.687L129.003 151.994C128.693 150.702 127.609 149.746 126.279 149.617L118.794 148.855C117.413 148.713 116.277 147.705 115.98 146.375L113.541 134.309C113.18 132.694 114.122 131.079 115.709 130.588C124.15 127.953 130.603 123.832 134.94 118.329C139.263 112.839 141.69 105.708 141.69 96.6648C141.69 80.6202 131.648 64.1234 114.599 55.2873Z" fill="white"/>
  <path d="M84.1327 67.3843C82.3811 67.3843 80.8599 68.5337 79.7976 70.2556C78.7312 71.9843 78.0847 74.3472 78.0847 76.936C78.0847 79.5249 78.7312 81.8878 79.7976 83.6164C80.8599 85.3384 82.3811 86.4878 84.1327 86.4878C85.8844 86.4878 87.4056 85.3384 88.4678 83.6164C89.5343 81.8878 90.1808 79.5249 90.1808 76.936C90.1808 74.3472 89.5343 71.9843 88.4678 70.2556C87.4056 68.5337 85.8844 67.3843 84.1327 67.3843Z" fill="#0C131D"/>
  <path d="M99.8985 67.7047C98.4822 67.7047 97.3079 68.8339 96.5117 70.4142C95.7035 72.0184 95.2152 74.2067 95.2152 76.6021C95.2152 78.9974 95.7035 81.1857 96.5117 82.7899C97.3079 84.3702 98.4822 85.4994 99.8985 85.4994C101.315 85.4994 102.489 84.3702 103.285 82.7899C104.094 81.1857 104.582 78.9974 104.582 76.6021C104.582 74.2067 104.094 72.0184 103.285 70.4142C102.489 68.8339 101.315 67.7047 99.8985 67.7047Z" fill="#0C131D"/>
  <path d="M103.213 88.7515C103.438 87.0057 105.047 85.7719 106.807 85.9959C110.746 86.4973 115.613 88.2226 119.851 90.7649C124.026 93.2693 128.142 96.9001 129.809 101.527C130.379 103.108 129.615 104.857 128.062 105.525L127.663 105.689C127.423 105.785 127.081 105.918 126.645 106.078C125.773 106.399 124.525 106.828 122.98 107.28C119.899 108.182 115.591 109.186 110.706 109.579C100.983 110.361 88.4718 108.736 79.1589 98.4104C77.976 97.0988 78.0884 95.0839 79.41 93.91C80.7316 92.7361 82.762 92.8477 83.9449 94.1592C91.3724 102.394 101.478 103.926 110.187 103.226C114.518 102.878 118.379 101.981 121.164 101.166C121.502 101.067 121.824 100.97 122.127 100.875C120.798 99.2213 118.871 97.6249 116.528 96.2199C112.942 94.0687 108.919 92.6912 105.989 92.3183C104.23 92.0943 102.987 90.4974 103.213 88.7515Z" fill="#0C131D"/>
  <path fill-rule="evenodd" clip-rule="evenodd" d="M79.4898 21.9638C78.7751 18.201 76.8318 14.8366 73.168 14.0704C69.7144 13.3482 66.5339 15.3648 64.3105 17.8547C59.6811 23.0391 56.3919 33.048 57.8551 45.9008C57.9592 46.8148 58.0866 47.6972 58.2363 48.5488C41.7038 56.6951 31.9219 72.1163 31.9219 90.3022C31.9219 106.824 40.9803 121.701 55.4243 130.827L49.408 150.283C47.7319 155.703 51.8166 161.187 57.5298 161.187H86.665C87.6091 161.187 88.5053 160.775 89.1155 160.06C89.7257 159.345 89.9881 158.4 89.8329 157.476L88.8848 151.831C88.1789 147.628 84.9895 144.261 80.8055 143.303L78.9561 142.879V139.486C82.3965 140.018 85.9632 140.296 89.6352 140.296C92.1219 140.296 94.5486 140.228 96.9115 140.09L97.7448 153.332C98.0476 157.756 101.752 161.191 106.221 161.191H133.693C134.673 161.191 135.6 160.747 136.209 159.984C136.818 159.222 137.043 158.225 136.819 157.277L135.208 150.455C134.279 146.519 130.937 143.602 126.886 143.188L121.712 142.659L120.388 135.621C128.494 132.66 135.176 128.223 139.961 122.145C145.301 115.363 148.078 106.79 148.078 96.5562C148.078 80.3615 139.311 64.2072 124.541 53.8077C128.032 53.0462 131.661 52.1586 134.985 50.8654C138.552 49.4775 141.483 46.9254 141.447 43.1737C141.414 39.7199 138.809 37.0254 135.924 35.3181C129.901 31.7539 119.416 30.3242 107.13 34.0663C106.839 34.1549 106.552 34.2454 106.269 34.3378C107.348 32.3391 108.347 30.2909 109.143 28.2266C110.56 24.5516 110.535 20.5833 107.489 18.1202C104.773 15.9249 100.905 16.0615 97.5284 17.0814C92.0542 18.7349 85.66 23.2682 80.4166 30.7442C80.2786 27.8074 80.0315 24.8161 79.4898 21.9638ZM97.0954 37.3932L97.0948 37.3943L97.0903 37.4017C96.448 38.4752 95.7974 39.5624 95.1679 40.6448C94.3893 41.9834 94.6907 43.6835 95.8831 44.6779C97.0754 45.6724 98.8149 45.6744 100.01 44.6828C102.037 42.9999 104.928 41.4047 109.015 40.16C120.048 36.7994 128.557 38.38 132.635 40.7929C134.8 42.0741 135.023 43.1099 135.024 43.2347C135.025 43.2448 135.038 43.3712 134.79 43.6451C134.496 43.9691 133.864 44.4549 132.64 44.931C128.99 46.3511 124.804 47.2421 120.383 48.1746L120.364 48.1786C118.688 48.5322 116.981 48.8923 115.317 49.285C114.013 49.5926 113.039 50.6714 112.873 51.9911C112.707 53.3109 113.385 54.5941 114.572 55.2101C131.615 64.0504 141.655 80.5432 141.655 96.5562C141.655 105.601 139.222 112.73 134.899 118.221C130.559 123.733 124.115 127.846 115.671 130.484C114.084 130.98 113.142 132.596 113.499 134.208L115.937 146.278C116.234 147.621 117.366 148.623 118.744 148.764L126.228 149.529C127.555 149.664 128.65 150.62 128.955 151.909L129.641 154.817H106.221C105.131 154.817 104.227 153.979 104.153 152.9L103.101 136.461C103.043 135.606 102.64 134.811 101.984 134.254C101.327 133.698 100.473 133.427 99.6129 133.502C96.44 133.782 93.1111 133.922 89.6352 133.922C85.0089 133.922 80.5911 133.438 76.4291 132.537C75.4795 132.331 74.4871 132.564 73.7302 133.169C72.9732 133.774 72.533 134.686 72.533 135.651V145.415C72.533 146.899 73.5653 148.187 75.0224 148.52L79.3612 149.514C81.0121 149.892 82.2706 151.22 82.5491 152.879L82.8739 154.813H57.5298C56.136 154.813 55.1396 153.475 55.5485 152.153L62.299 130.323C62.7387 128.901 62.1288 127.366 60.8293 126.625C46.8536 118.652 38.345 105.097 38.345 90.3022C38.345 73.8673 47.489 60.1059 63.1866 53.2885C64.6181 52.6668 65.391 51.1129 65.0175 49.6071C64.6881 48.2786 64.4225 46.8092 64.2376 45.1852C62.9148 33.5653 66.0277 25.5427 69.1177 22.0823C70.7541 20.2498 71.7626 20.2907 71.8436 20.3076C71.8564 20.3096 72.0111 20.3342 72.2646 20.6755C72.5542 21.0653 72.9269 21.823 73.1778 23.1444C73.9206 27.0553 74.0421 31.3765 74.162 35.9229L74.163 35.9603C74.2247 38.298 74.2879 40.6943 74.4524 43.0068C74.5593 44.5108 75.7137 45.7346 77.2188 45.9398C78.724 46.1451 80.1681 45.2755 80.6798 43.8559C81.0404 42.8557 81.4808 41.8038 82.0112 40.6987C87.0888 30.1193 94.4251 24.6817 99.3986 23.1794C102.036 22.3828 103.21 22.8824 103.432 23.062L103.434 23.0641C103.476 23.0976 103.574 23.1767 103.617 23.5136C103.669 23.9252 103.622 24.7094 103.144 25.9484C101.714 29.6583 99.4722 33.421 97.0954 37.3932Z" fill="#0C131D"/>
  <defs>
    <linearGradient id="paint0_linear_1917_25883" x1="90" y1="0" x2="90" y2="180" gradientUnits="userSpaceOnUse">
      <stop stop-color="#E4DCF9"/>
      <stop offset="1" stop-color="#C0B1F0"/>
    </linearGradient>
  </defs>
</svg>
